<?xml version="1.0" encoding="utf-8"?>
<!-- Generator: Adobe Illustrator 26.0.0, SVG Export Plug-In . SVG Version: 6.00 Build 0)  -->
<svg version="1.1" id="Layer_1" xmlns="http://www.w3.org/2000/svg" xmlns:xlink="http://www.w3.org/1999/xlink" x="0px" y="0px"
	 viewBox="0 0 150 150" style="enable-background:new 0 0 150 150;" xml:space="preserve">
<style type="text/css">
	.st0{fill:#0194FE;}
</style>
<g>
	<g>
		<path class="st0" d="M74.9,141.3c-38.3,0-69.7-29.9-72-67.6c-0.2-2.4,1.8-4.5,4.3-4.5h19.7c2.2,0,4,1.7,4.2,3.8
			c1.9,22.4,20.8,40.1,43.8,40.1c24.2,0,43.9-19.7,43.9-43.9c0-14.2-7-27.6-18.4-35.8c-1.8-1.3-2.3-3.8-1.1-5.7l10-16.9
			c1.2-2.1,4-2.8,6-1.4c19.7,13.3,31.7,35.8,31.7,59.7C147.1,108.9,114.7,141.3,74.9,141.3z"/>
	</g>
	<ellipse transform="matrix(0.9732 -0.2298 0.2298 0.9732 -13.8965 19.0832)" class="st0" cx="75" cy="69.2" rx="24.8" ry="24.8"/>
</g>
</svg>
