<?xml version="1.0" encoding="utf-8"?>
<!-- Generator: Adobe Illustrator 23.0.3, SVG Export Plug-In . SVG Version: 6.00 Build 0)  -->
<svg version="1.1" id="Layer_1" xmlns="http://www.w3.org/2000/svg" xmlns:xlink="http://www.w3.org/1999/xlink" x="0px" y="0px"
	 viewBox="0 0 303.7 124.3" style="enable-background:new 0 0 303.7 124.3;" xml:space="preserve">
<style type="text/css">
	.st0{fill:#0194FE;}
</style>
<g>
	<path class="st0" d="M160.9,101.2c-5.7,0-10.3,4.6-10.3,10.3l0,0c0,5.7,4.6,10.3,10.3,10.3s10.3-4.6,10.3-10.3
		C171.2,105.8,166.6,101.2,160.9,101.2L160.9,101.2z"/>
	<path class="st0" d="M181.2,101.2c-3.2,0-6.3,1.5-8.2,4.1c2.9,3.7,2.9,8.9,0,12.6c3.5,4.5,10,5.4,14.5,1.9s5.4-10,1.9-14.5
		C187.4,102.7,184.4,101.2,181.2,101.2z"/>
	<path class="st0" d="M184.7,90.2h-35.9V75.1h7.8V64.6l13.4-13c0.5-0.5,0.9-0.7,1.3-0.7c0.8,0,1.3,0.6,1.3,1.7v22.5h12.2"/>
	<path class="st0" d="M182.5,75.1h9.1c0.6,0,1-0.3,1-1v-9.5l12.6-12.8c0.5-0.5,0.9-0.7,1.3-0.7c0.8,0,1.3,0.6,1.3,1.7V75h6V64
		l12.6-12.2c0.5-0.5,0.9-0.7,1.3-0.7c0.8,0,1.3,0.6,1.3,1.7V75h5.1V64l12.6-12.2c0.5-0.5,0.9-0.7,1.3-0.7c0.8,0,1.3,0.6,1.3,1.7
		v37.3h-66.6v-15H182.5z"/>
	<path class="st0" d="M150.4,75.1h-3.3c0-0.4,0.1-1,0.1-1.7c0.1-0.6,0.1-1.1,0.1-1.5c0-4.8-1.5-9.2-4.5-13.2
		c-3.1-4.3-6.8-6.5-11-6.5H36.7V1.7c0-1.1-0.5-1.7-1.3-1.7c-0.4,0-0.8,0.2-1.3,0.7L21.9,13.1v62.2c-1.7,0.1-2.7,0.2-3.1,0.2
		c-2,0-4.3-0.7-6.8-2.1s-4.2-3-5.3-4.8C6.2,67.7,6,66.2,6,64c0-0.3-0.1-0.6,0-1.3s0.1-1.2,0.1-1.5c0-1.4-0.4-2.1-1.4-2.1
		c-1.2,0-2.3,1.6-3.3,4.9c-0.9,2.7-1.3,4.9-1.3,6.6c0,4.9,1.7,9.4,5.2,13.4c3.6,4.1,7.9,6.2,12.8,6.2h132.4L150.4,75.1z M132,74
		c0,2.2-1.8,4.1-4.1,4.1H44c-2.3,0-4.1-1.8-4.1-4.1v-5.4c0-2.3,1.8-4.1,4.1-4.1h83.9c2.3,0,4.1,1.8,4.1,4.1V74z"/>
	<path class="st0" d="M302.1,41.1c-1.1,0-5.8,3.7-14,10.9c-4.2-3.3-8.3-5-12.1-5c-6.3,0-11.3,1.9-15.2,5.6c-3.9,3.8-5.8,8.7-5.8,15
		c0,6.2,2.2,11.6,6.5,16.2c4.4,4.6,9.6,6.9,15.8,6.9c1.7,0,3.6-0.2,5.5-0.7v16.1c0,1.9-0.2,2.8-0.7,2.8h-10.6
		c-1.4,1-2.5,1.9-3.1,2.5l-8.6,8.8c-1.3,1.2-1.9,2.1-1.9,2.7c0,0.8,0.6,1.2,1.7,1.2h28.5c2.7,0,5-1.1,7-3.1s3-4.4,3-7V49.3
		c0.9-0.9,1.9-1.9,2.8-2.9c1.6-1.7,2.4-3,2.4-3.9C303.3,41.6,303,41.1,302.1,41.1z M275.1,77.8c-5.3,0-9.6-4.3-9.6-9.6
		s4.3-9.6,9.6-9.6s9.6,4.3,9.6,9.6S280.4,77.8,275.1,77.8z"/>
</g>
</svg>
