<?xml version="1.0" encoding="utf-8"?>
<!-- Generator: Adobe Illustrator 23.0.3, SVG Export Plug-In . SVG Version: 6.00 Build 0)  -->
<svg version="1.1" id="Layer_1" xmlns="http://www.w3.org/2000/svg" xmlns:xlink="http://www.w3.org/1999/xlink" x="0px" y="0px"
	 viewBox="0 0 303.7 124.3" style="enable-background:new 0 0 303.7 124.3;" xml:space="preserve">
<style type="text/css">
	.st0{fill:#0194FE;}
	.st1{fill:#FFFFFF;}
</style>
<g>
	<path class="st0" d="M160.9,101.2c-5.7,0-10.3,4.6-10.3,10.3l0,0c0,5.7,4.6,10.3,10.3,10.3c5.7,0,10.3-4.6,10.3-10.3
		C171.2,105.8,166.6,101.2,160.9,101.2L160.9,101.2z"/>
	<path class="st0" d="M181.2,101.2c-3.2,0-6.3,1.5-8.2,4.1c2.9,3.7,2.9,8.9,0,12.6c3.5,4.5,10,5.4,14.5,1.9c4.5-3.5,5.4-10,1.9-14.5
		C187.4,102.7,184.4,101.2,181.2,101.2z"/>
	<path class="st0" d="M184.7,90.2h-35.9V75.1h7.8V64.6l13.4-13c0.5-0.5,0.9-0.7,1.3-0.7c0.8,0,1.3,0.6,1.3,1.7v22.5h12.2"/>
	<path class="st0" d="M182.5,75.1h9.1c0.6,0,1-0.3,1-1v-9.5l12.6-12.8c0.5-0.5,0.9-0.7,1.3-0.7c0.8,0,1.3,0.6,1.3,1.7v22.2h6V64
		l12.6-12.2c0.5-0.5,0.9-0.7,1.3-0.7c0.8,0,1.3,0.6,1.3,1.7v22.2h5.1V64l12.6-12.2c0.5-0.5,0.9-0.7,1.3-0.7c0.8,0,1.3,0.6,1.3,1.7
		v37.3h-66.6V75.1z"/>
	<g>
		<path class="st0" d="M150.5,90.2H18.1c-4.9,0-9.2-2.1-12.8-6.2c-3.5-4-5.2-8.5-5.2-13.4c0-1.7,0.4-3.9,1.3-6.6
			c1-3.3,2.1-4.9,3.3-4.9c1,0,1.4,0.7,1.4,2.1c0,0.3,0,0.8-0.1,1.5S6,63.7,6,64c0,2.2,0.2,3.7,0.7,4.6c1.1,1.8,2.8,3.4,5.3,4.8
			c2.5,1.4,4.8,2.1,6.8,2.1c0.4,0,1.4-0.1,3.1-0.2V13.1L34.1,0.7C34.6,0.2,35,0,35.4,0c0.8,0,1.3,0.6,1.3,1.7v50.5h95.1
			c4.2,0,7.9,2.2,11,6.5c3,4,4.5,8.4,4.5,13.2c0,0.4,0,0.9-0.1,1.5c0,0.7-0.1,1.3-0.1,1.7h3.3"/>
		<path class="st1" d="M127.9,78.1H44c-2.3,0-4.1-1.8-4.1-4.1v-5.4c0-2.3,1.8-4.1,4.1-4.1h83.9c2.3,0,4.1,1.8,4.1,4.1v5.4
			C132,76.2,130.2,78.1,127.9,78.1z"/>
	</g>
	<g>
		<path class="st0" d="M303.3,42.5c0,0.9-0.8,2.2-2.4,3.9c-0.9,1-1.9,2-2.8,2.9V114c0,2.6-1,5-3,7c-2,2-4.3,3.1-7,3.1h-28.5
			c-1.1,0-1.7-0.4-1.7-1.2c0-0.6,0.6-1.5,1.9-2.7l8.6-8.8c0.6-0.6,1.7-1.5,3.1-2.5h10.6c0.5,0,0.7-0.9,0.7-2.8V90
			c-1.9,0.5-3.8,0.7-5.5,0.7c-6.2,0-11.4-2.3-15.8-6.9c-4.3-4.6-6.5-10-6.5-16.2c0-6.3,1.9-11.2,5.8-15c3.9-3.7,8.9-5.6,15.2-5.6
			c3.8,0,7.9,1.7,12.1,5c8.2-7.2,12.9-10.9,14-10.9C303,41.1,303.3,41.6,303.3,42.5z"/>
		<circle class="st1" cx="275.1" cy="68.2" r="9.6"/>
	</g>
</g>
</svg>
